<svg width="196" height="196" viewBox="0 0 196 196" fill="none" xmlns="http://www.w3.org/2000/svg">
<circle cx="98" cy="98" r="98" fill="#D9D9D9"/>
<path d="M97.8842 91.0616C103.283 91.0616 108.56 89.4607 113.048 86.4616C117.537 83.4624 121.035 79.1995 123.101 74.212C125.167 69.2245 125.708 63.7365 124.655 58.4418C123.601 53.1471 121.002 48.2836 117.185 44.4664C113.367 40.6492 108.504 38.0496 103.209 36.9964C97.9144 35.9432 92.4264 36.4838 87.4389 38.5496C82.4514 40.6155 78.1886 44.114 75.1894 48.6026C72.1902 53.0912 70.5894 58.3683 70.5894 63.7667C70.5894 71.0058 73.465 77.9483 78.5838 83.0671C83.7026 88.1859 90.6451 91.0616 97.8842 91.0616Z" fill="#231F20"/>
<path d="M138.827 159.299C140.637 159.299 142.372 158.58 143.652 157.3C144.932 156.02 145.65 154.285 145.65 152.475C145.65 139.807 140.618 127.657 131.66 118.699C122.702 109.741 110.553 104.709 97.8846 104.709C85.2163 104.709 73.0668 109.741 64.109 118.699C55.1511 127.657 50.1187 139.807 50.1187 152.475C50.1187 154.285 50.8376 156.02 52.1173 157.3C53.397 158.58 55.1326 159.299 56.9424 159.299H138.827Z" fill="#231F20"/>
</svg>
